<svg width="260" height="50" viewBox="0 0 260 50" xmlns="http://www.w3.org/2000/svg">
<path d="M71.0361 0C62.7841 0 55.1024 4.16345 50.5391 11.1411C50.0828 11.835 50.2729 12.7602 50.9574 13.1843C51.6419 13.6469 52.5546 13.4541 52.9729 12.7602C57.0038 6.63069 63.7728 2.92984 71.0742 2.92984C83.091 2.92984 92.8261 12.7988 92.8261 24.9422C92.8261 37.1241 83.053 46.9931 71.0742 46.9931C59.0954 46.9931 49.3602 37.0856 49.3602 24.9422C49.3222 11.2182 38.2561 0 24.6421 0C11.0661 0 0 11.2182 0 24.9807C0 38.7818 11.0661 50 24.6421 50C32.9322 50 40.6138 45.798 45.2152 38.8204C45.6715 38.1264 45.4814 37.2012 44.7969 36.7772C44.1124 36.3146 43.1997 36.5073 42.7814 37.2012C38.7124 43.3308 31.9434 47.0316 24.6421 47.0316C12.6633 47.0316 2.92815 37.1241 2.92815 24.9807C2.92815 12.8373 12.6633 2.96839 24.6421 2.96839C36.6589 2.96839 46.3941 12.8373 46.3941 24.9807C46.3941 38.7818 57.4602 50 71.0361 50C84.6501 50 95.7163 38.7818 95.7163 24.9807C95.7163 11.2182 84.6501 0 71.0361 0Z" fill="#A0A0A0" />
<path d="M71.0362 14.0324C70.2376 14.0324 69.5911 14.6878 69.5911 15.4973V23.5158H61.6813C60.8827 23.5158 60.2362 24.1712 60.2362 24.9808C60.2362 25.7903 60.8827 26.4457 61.6813 26.4457H69.5911V34.4642C69.5911 35.2737 70.2376 35.9291 71.0362 35.9291C71.8348 35.9291 72.4812 35.2737 72.4812 34.4642V26.4842H80.391C81.1896 26.4842 81.8361 25.8289 81.8361 25.0193C81.8361 24.2097 81.1896 23.5544 80.391 23.5544H72.4812V15.5359C72.4812 14.6878 71.8348 14.0324 71.0362 14.0324Z"  fill="#A0A0A0"/>
<path d="M17.4928 14.2637C17.0365 14.0324 16.5041 14.0709 16.0858 14.3408C15.6675 14.6106 15.4013 15.0732 15.4013 15.5744V34.5412C15.4013 35.0424 15.6675 35.5436 16.0858 35.7749C16.314 35.9291 16.5802 36.0062 16.8464 36.0062C17.0745 36.0062 17.3027 35.9676 17.4928 35.852L36.2026 26.33C36.6969 26.0987 37.0012 25.559 37.0012 25.0193C37.0012 24.4796 36.6969 23.9398 36.2026 23.7085L17.4928 14.2637ZM18.2914 32.1511V17.926L32.3237 25.0193L18.2914 32.1511Z" fill="#A0A0A0" />
<path d="M113.859 7.59442H111.349V20.5859H113.859V7.59442Z" fill="#A0A0A0" />
<path d="M131.39 16.461L124.545 7.59442H122.453V20.5859H124.849V11.7579L131.694 20.5859H133.747V7.59442H131.39V16.461Z" fill="#A0A0A0" />
<path d="M148.046 18.4271C145.688 18.4271 143.977 16.6538 143.977 14.0709C143.977 11.5266 145.726 9.71473 148.122 9.71473C149.795 9.71473 150.936 10.4472 151.658 11.9507L153.94 11.064C152.837 8.82807 150.898 7.4017 148.084 7.4017C144.281 7.4017 141.467 10.2544 141.467 14.0709C141.467 17.9645 144.281 20.7787 148.008 20.7787C150.898 20.7787 152.989 19.2753 154.016 16.9622L151.735 16.037C151.05 17.6947 149.871 18.4271 148.046 18.4271Z" fill="#A0A0A0" />
<path d="M165.044 15.0732H170.977V12.9915H165.044V9.7918H171.357V7.59442H162.61V20.5859H171.433V18.35H165.044V15.0732Z" fill="#A0A0A0" />
<path d="M188.964 16.461L182.119 7.59442H180.027V20.5859H182.423V11.7579L189.268 20.5859H191.36V7.59442H188.964V16.461Z"  fill="#A0A0A0"/>
<path d="M209.917 7.59442H199.079V9.90745H203.262V20.5859H205.696V9.90745H209.917V7.59442Z"  fill="#A0A0A0"/>
<path d="M221.021 7.59442H218.512V20.5859H221.021V7.59442Z"  fill="#A0A0A0"/>
<path d="M243.04 7.59442H240.34L236.461 17.4248L236.309 17.9645L236.156 17.4248L232.278 7.59442H229.578L234.94 20.5859H237.64L243.04 7.59442Z"  fill="#A0A0A0"/>
<path d="M253.611 15.0732H259.544V12.9915H253.611V9.7918H259.924V7.59442H251.177V20.5859H260V18.35H253.611V15.0732Z"  fill="#A0A0A0"/>
<path d="M121.997 35.158H115.342V37.2012H119.449C119.107 39.1673 117.585 40.4009 115.532 40.4009C113.136 40.4009 111.425 38.6276 111.425 36.0447C111.425 33.5004 113.174 31.6885 115.57 31.6885C117.167 31.6885 118.346 32.3824 119.031 33.6931L121.388 32.8065C120.285 30.6476 118.27 29.3755 115.57 29.3755C111.767 29.3755 108.953 32.2282 108.953 36.0447C108.953 39.9383 111.767 42.7525 115.532 42.7525C119.411 42.7525 122.035 39.9768 122.035 36.0832C122.035 35.505 121.997 35.158 121.997 35.158Z"  fill="#A0A0A0"/>
<path d="M134.508 29.4911L129.298 42.4826H131.922L132.987 39.707H138.805L139.87 42.4826H142.57L137.36 29.4911H134.508ZM133.861 37.5096L135.801 32.4595L135.953 31.8812L136.105 32.4595L138.044 37.5096H133.861Z"  fill="#A0A0A0"/>
<path d="M157.249 38.8974L151.963 29.4911H149.871V42.4826H152.267V34.4256L156.792 42.4826H157.705L162.23 34.387V42.4826H164.588V29.4911H162.496L157.249 38.8974Z"  fill="#A0A0A0"/>
<path d="M175.616 36.9699H181.586V34.8882H175.616V31.6885H181.929V29.4911H173.182V42.4826H182.005V40.2467H175.616V36.9699Z"  fill="#A0A0A0"/>
<path d="M196.646 35.1966L195.124 34.734C193.831 34.3485 193.223 33.7702 193.223 32.8835C193.223 31.9583 193.946 31.4186 195.086 31.4186C196.874 31.4186 197.178 32.9606 197.178 32.9606L199.346 32.1896C199.346 32.1896 198.623 29.2983 195.048 29.2983C192.462 29.2983 190.827 30.7247 190.827 32.9992C190.827 34.9267 191.854 36.0832 193.908 36.7L195.353 37.1241C196.569 37.4711 197.14 38.0108 197.14 38.9745C197.14 39.9768 196.341 40.5551 195.086 40.5551C193.109 40.5551 192.805 38.6661 192.805 38.6661L190.599 39.3215C190.599 39.3215 191.36 42.6754 195.124 42.6754C197.862 42.6754 199.65 41.1719 199.65 38.8589C199.65 36.9699 198.623 35.8134 196.646 35.1966Z"  fill="#A0A0A0"/>
</svg>
